<?xml version="1.0" encoding="UTF-8"?>
<svg width="18px" height="18px" viewBox="0 0 18 18" version="1.1" xmlns="http://www.w3.org/2000/svg" xmlns:xlink="http://www.w3.org/1999/xlink">
    <!-- Generator: Sketch 50.2 (55047) - http://www.bohemiancoding.com/sketch -->
    <title>Group 14</title>
    <desc>Created with Sketch.</desc>
    <defs></defs>
    <g id="Page-1" stroke="none" stroke-width="1" fill="none" fill-rule="evenodd">
        <g id="1920" transform="translate(-604.000000, -1794.000000)">
            <g id="card" transform="translate(370.000000, 1669.000000)">
                <g id="operators" transform="translate(150.000000, 124.000000)">
                    <g id="Group-14" transform="translate(84.000000, 1.000000)">
                        <g id="Group-13">
                            <g id="Page-1">
                                <path d="M0.200999205,9.18891922 C0.200999205,13.9403486 4.05592895,17.7937894 8.80679998,17.7937894 C13.5580432,17.7937894 17.4109258,13.9403486 17.4109258,9.18891922 C17.4109258,4.43804819 13.5580432,0.585165673 8.80679998,0.585165673 C4.05592895,0.585165673 0.200999205,4.43804819 0.200999205,9.18891922" id="Clip-16" fill="#E4E8EE"></path>
                                <path d="M2.62051367,3.70651262 C6.61378506,3.36782398 10.9961729,3.35512763 14.9930207,3.70651262 C13.4789358,1.99840603 11.2672668,0.922255961 8.80685659,0.922255961 C6.34447931,0.922255961 4.13477735,1.99840603 2.62051367,3.70651262" id="Fill-4" fill="#A9B0BD"></path>
                                <path d="M15.0742952,14.5783285 C11.195291,14.8792858 6.58436886,14.9005656 2.53745091,14.5783285 C4.05386045,16.3409758 6.30039972,17.4568243 8.80676718,17.4568243 C11.3134923,17.4568243 13.5580645,16.3409758 15.0742952,14.5783285" id="Fill-6" fill="#A9B0BD"></path>
                                <path d="M0.809334151,7.08824895 C6.18775982,6.99329453 11.4315326,6.9775582 16.8044148,7.08824895 C16.9794814,7.75954628 17.0738994,8.46321038 17.0738994,9.18904839 C17.0738994,9.81903787 17.0034435,10.4322181 16.8707577,11.0214362 C11.4297444,11.1791571 6.06973738,11.1387433 0.742812412,11.0214362 C0.610126578,10.4322181 0.53806136,9.81903787 0.53806136,9.18904839 C0.53806136,8.46321038 0.632300491,7.75954628 0.809334151,7.08824895" id="Fill-9" fill="#A9B0BD"></path>
                            </g>
                        </g>
                    </g>
                </g>
            </g>
        </g>
    </g>
</svg>