<?xml version="1.0" encoding="UTF-8"?>
<svg width="21px" height="21px" viewBox="0 0 21 21" version="1.1" xmlns="http://www.w3.org/2000/svg" xmlns:xlink="http://www.w3.org/1999/xlink">
    <!-- Generator: Sketch 50.2 (55047) - http://www.bohemiancoding.com/sketch -->
    <title>Group 7</title>
    <desc>Created with Sketch.</desc>
    <defs></defs>
    <g id="Page-1" stroke="none" stroke-width="1" fill="none" fill-rule="evenodd">
        <g id="1920" transform="translate(-520.000000, -1793.000000)" fill="#A9B0BD" fill-rule="nonzero">
            <g id="card" transform="translate(370.000000, 1669.000000)">
                <g id="operators" transform="translate(150.000000, 124.000000)">
                    <g id="Group-7">
                        <g id="megafon">
                            <path d="M20.524,10.4223636 C20.524,13.2096364 19.5376364,15.5845455 17.5738182,17.5496364 C16.0191818,19.0858182 14.2284545,20.0301818 12.1978182,20.3687273 L11.0059091,20.4991818 L10.4223636,20.524 L9.716,20.4991818 L9.716,11.7542727 L12.1978182,11.7542727 L12.1978182,0.460727273 C14.2278182,0.797363636 16.0191818,1.73472727 17.5738182,3.27090909 C19.5382727,5.23536364 20.524,7.62045455 20.524,10.4223636 Z M17.8614545,13.4304545 C17.5649091,13.4304545 17.3103636,13.5373636 17.1054545,13.7422727 C16.8992727,13.9471818 16.793,14.203 16.793,14.5065455 C16.7883593,14.7908665 16.9014366,15.064463 17.1054545,15.2625455 C17.3103636,15.4687273 17.5649091,15.5756364 17.8614545,15.5756364 C18.1484832,15.5811106 18.4250335,15.4678194 18.6257273,15.2625455 C18.8306364,15.0582727 18.9375455,14.8024545 18.9375455,14.5065455 C18.9375455,14.2036364 18.8306364,13.9471818 18.6257273,13.7422727 C18.4195455,13.5373636 18.1656364,13.4304545 17.8614545,13.4304545 Z M16.0694545,14.5071818 C16.0694545,14.2036364 15.9619091,13.9478182 15.757,13.7429091 C15.5514545,13.538 15.2969091,13.4310909 14.9920909,13.4310909 C14.6891818,13.4310909 14.4346364,13.538 14.2284545,13.7429091 C14.0222727,13.9478182 13.916,14.2036364 13.916,14.5071818 C13.9113593,14.7915029 14.0244366,15.0650993 14.2284545,15.2631818 C14.4346364,15.4693636 14.6885455,15.5762727 14.9920909,15.5762727 C15.2794247,15.582383 15.5564148,15.4690061 15.757,15.2631818 C15.9625455,15.0589091 16.0694545,14.8030909 16.0694545,14.5071818 Z M11.2604545,13.7429091 C11.0555455,13.9478182 10.9486364,14.2036364 10.948,14.5071818 C10.9439655,14.7913873 11.0569475,15.0647532 11.2604545,15.2631818 C11.466,15.4693636 11.7205455,15.5762727 12.0247273,15.5762727 C12.3289091,15.5762727 12.5840909,15.4693636 12.7896364,15.2631818 C12.9951818,15.0589091 13.1014545,14.8030909 13.1014545,14.5071818 C13.1014545,14.2042727 12.9951818,13.9478182 12.7896364,13.7429091 C12.5834545,13.538 12.3289091,13.4310909 12.0247273,13.4310909 C11.7205455,13.4310909 11.466,13.538 11.2604545,13.7429091 Z" id="Combined-Shape" opacity="0.800000012"></path>
                            <path d="M11.0059091,0.345545455 L11.0059091,10.4802727 L8.56481818,10.4802727 L8.56481818,20.3687273 C6.559,20.0142727 4.79181818,19.0699091 3.27090909,17.5496364 C1.30709091,15.5845455 0.320727273,13.2096364 0.320727273,10.4223636 C0.320727273,7.62045455 1.30709091,5.23536364 3.27090909,3.27090909 C5.07181818,1.463 7.21636364,0.485545455 9.716,0.345545455 L10.4223636,0.320727273 L11.0059091,0.345545455 Z M7.74327273,7.01972727 C7.53772727,7.23290909 7.43081818,7.48809091 7.43081818,7.784 C7.42530455,8.07109715 7.53832635,8.34778188 7.74327273,8.54890909 C7.94945455,8.75445455 8.20336364,8.86072727 8.50754545,8.86072727 C8.81172727,8.86072727 9.06627273,8.75381818 9.27181818,8.54890909 C9.47672727,8.34336364 9.58427273,8.08818182 9.58427273,7.784 C9.58427273,7.48809091 9.47672727,7.23290909 9.27181818,7.01972727 C9.06627273,6.81481818 8.81236364,6.70727273 8.50754545,6.70727273 C8.22066793,6.70193515 7.94424706,6.81494318 7.74327273,7.01972727 Z" id="Shape"></path>
                        </g>
                    </g>
                </g>
            </g>
        </g>
    </g>
</svg>