<?xml version="1.0" encoding="UTF-8"?>
<svg width="14px" height="17px" viewBox="0 0 14 17" version="1.1" xmlns="http://www.w3.org/2000/svg" xmlns:xlink="http://www.w3.org/1999/xlink">
    <!-- Generator: Sketch 50.2 (55047) - http://www.bohemiancoding.com/sketch -->
    <title>Group 12</title>
    <desc>Created with Sketch.</desc>
    <defs></defs>
    <g id="Page-1" stroke="none" stroke-width="1" fill="none" fill-rule="evenodd">
        <g id="1920" transform="translate(-581.000000, -1794.000000)" fill="#A9B0BD">
            <g id="card" transform="translate(370.000000, 1669.000000)">
                <g id="operators" transform="translate(150.000000, 124.000000)">
                    <g id="Group-12" transform="translate(61.000000, 1.000000)">
                        <g id="Tele_2">
                            <path d="M6.66165244,3.27454 C4.73362195,3.59822 4.57189634,5.11836 4.53540244,6.5416 L0.30172561,6.5416 C0.30172561,4.709 1.14415854,2.69722 2.20978049,1.75644 C3.21816463,0.86598 4.74629878,0.1904 6.66165244,0.11492 L6.66165244,3.27454 Z M7.61510366,3.25346 L7.61510366,0.08228 C9.40368902,0.16626 10.8223415,0.62424 11.8691402,1.45554 C13.0323354,2.3783 13.6162378,3.65772 13.6162378,5.2955 C13.6162378,6.79456 13.041939,8.18652 11.8864268,9.47376 C10.7332195,10.75862 10.225378,11.32642 7.00507927,13.57824 L13.6573415,13.57824 L13.6573415,16.95546 L0.30172561,16.95546 L0.30172561,13.57824 C1.49027439,12.87852 2.63579878,12.00336 3.72715854,11.25468 C4.82120732,10.50464 5.86454878,9.72842 6.8544939,8.91752 C7.81716463,8.14232 8.45753659,7.50618 8.76907927,7.00502 C9.08446341,6.5042 9.24196341,5.94354 9.24196341,5.31964 C9.24196341,4.63964 9.05757317,4.12216 8.69032927,3.77672 C8.41412805,3.5173 8.06186585,3.32452 7.61510366,3.25346 Z" id="Fill-14"></path>
                        </g>
                    </g>
                </g>
            </g>
        </g>
    </g>
</svg>